<?xml version="1.0" encoding="UTF-8"?>
<svg width="64px" height="84px" viewBox="0 0 64 84" version="1.1" xmlns="http://www.w3.org/2000/svg" xmlns:xlink="http://www.w3.org/1999/xlink">
    <!-- Generator: Sketch 45.1 (43504) - http://www.bohemiancoding.com/sketch -->
    <title>book</title>
    <desc>Created with Sketch.</desc>
    <defs></defs>
    <g id="Page-1" stroke="none" stroke-width="1" fill="none" fill-rule="evenodd">
        <g id="book" fill-rule="nonzero" fill="#000000">
            <g id="Group">
                <path d="M2.467,77.561 C5.472,78.264 8.402,77.576 11.381,76.998 C16.863,75.936 22.483,75.878 28.046,75.89 C37.055,75.908 46.568,77.519 55.465,75.894 C61.183,74.85 63.073,70.097 63.508,64.892 C64.397,54.244 63.533,43.421 63.348,32.759 C63.218,25.301 64.586,17.25 63.536,9.855 C62.777,4.519 60.161,1.512 54.664,0.958 C47.15,0.201 39.199,1.04 31.658,1.221 C21.43,1.467 11.204,2.317 1.134,4.15 C0.293,4.303 0.053,5.323 0.387,5.986 C2.971,11.118 1.542,17.227 0.987,22.675 C0.342,28.988 1.438,35.359 1.216,41.689 C0.981,48.435 2.295,55.097 2.194,61.841 C2.154,64.49 1.938,67.137 1.865,69.786 C1.79,72.471 2.55,75.07 2.55,77.688 C2.55,79.3 5.05,79.3 5.05,77.688 C5.05,75.61 4.43,73.498 4.361,71.383 C4.257,68.209 4.578,65.011 4.695,61.84 C4.966,54.508 3.523,47.251 3.78,39.898 C4.016,33.145 3.03,26.553 3.8,19.792 C4.386,14.642 4.947,9.491 2.547,4.725 C2.298,5.337 2.049,5.949 1.8,6.561 C16.819,3.827 31.877,4.041 47.048,3.309 C50.228,3.156 53.432,3.132 56.552,3.83 C60.702,4.758 61.088,9.167 61.247,12.676 C61.55,19.323 60.769,26.092 60.85,32.759 C60.952,41.2 61.356,49.63 61.26,58.074 C61.223,61.324 61.218,64.682 60.617,67.885 C59.668,72.952 54.725,73.737 50.369,74.001 C42.431,74.482 34.23,73.401 26.259,73.386 C22.088,73.377 17.94,73.579 13.801,74.106 C10.343,74.545 6.607,75.963 3.133,75.151 C1.563,74.784 0.897,77.194 2.467,77.561 L2.467,77.561 Z" id="Shape"></path>
                <path d="M14.049,75.356 C14.355,51.401 12.326,26.866 15.049,3.023 C15.232,1.423 12.73,1.44 12.549,3.023 C9.827,26.864 11.855,51.401 11.549,75.356 C11.528,76.969 14.028,76.967 14.049,75.356 L14.049,75.356 Z" id="Shape"></path>
                <path d="M27.502,22.769 C32.761,25.185 39.014,22.419 44.466,22.272 C44.049,21.855 43.633,21.439 43.216,21.022 C43.509,24.727 43.239,28.431 42.261,32.023 C42.662,31.717 43.065,31.411 43.466,31.106 C38.461,31.414 33.447,31.495 28.466,32.106 C28.867,32.633 29.27,33.161 29.671,33.689 C30.554,29.424 32.122,24.179 29.017,20.473 C27.981,19.236 26.221,21.014 27.249,22.241 C29.592,25.037 27.912,29.873 27.261,33.025 C27.114,33.735 27.607,34.713 28.466,34.608 C33.447,33.997 38.461,33.916 43.466,33.608 C44.025,33.574 44.519,33.252 44.671,32.691 C45.705,28.898 46.025,24.941 45.716,21.025 C45.663,20.36 45.188,19.755 44.466,19.775 C39.626,19.905 33.362,22.725 28.764,20.612 C27.31,19.942 26.038,22.096 27.502,22.769 L27.502,22.769 Z" id="Shape"></path>
                <path d="M25.799,41.939 C33.055,41.914 40.272,41.538 47.465,40.562 C49.057,40.346 48.376,37.937 46.801,38.151 C39.834,39.096 32.824,39.415 25.799,39.44 C24.187,39.445 24.187,41.945 25.799,41.939 L25.799,41.939 Z" id="Shape"></path>
                <path d="M20.134,49.561 C25.38,50.559 30.367,49.337 35.582,48.786 C40.954,48.218 46.403,48.274 51.799,48.272 C53.411,48.271 53.411,45.771 51.799,45.772 C46.889,45.774 41.986,45.826 37.085,46.158 C31.634,46.528 26.272,48.192 20.798,47.151 C19.223,46.851 18.551,49.26 20.134,49.561 L20.134,49.561 Z" id="Shape"></path>
                <path d="M14.387,75.653 C15.337,77.516 14.902,80.005 14.883,82.022 C14.874,82.966 15.952,83.585 16.764,83.101 C18.443,82.103 20.026,81.151 20.878,79.32 C20.224,79.404 19.569,79.489 18.915,79.573 C20.136,80.642 21.702,81.178 22.915,82.24 C23.543,82.79 24.85,82.693 25.004,81.688 C25.365,79.338 25.926,77.029 26.338,74.688 C26.615,73.112 24.207,72.438 23.928,74.024 C23.516,76.364 22.954,78.674 22.594,81.024 C23.29,80.839 23.987,80.656 24.683,80.472 C23.462,79.403 21.896,78.867 20.683,77.805 C20.127,77.319 19.08,77.283 18.72,78.058 C18.045,79.506 16.824,80.156 15.502,80.943 C16.129,81.302 16.756,81.663 17.383,82.022 C17.407,79.465 17.747,76.747 16.545,74.391 C15.813,72.955 13.655,74.22 14.387,75.653 L14.387,75.653 Z" id="Shape"></path>
            </g>
        </g>
    </g>
</svg>